<?xml version="1.0" standalone="no"?>
<!DOCTYPE svg PUBLIC "-//W3C//DTD SVG 1.1//EN" "http://www.w3.org/Graphics/SVG/1.1/DTD/svg11.dtd" >
<svg xmlns="http://www.w3.org/2000/svg">
<metadata>Generated by IcoMoon</metadata>
<defs>
<font id="excicon" horiz-adv-x="1024">
<font-face units-per-em="1024" ascent="960" descent="-64" />
<missing-glyph horiz-adv-x="1024" />
<glyph unicode="&#x20;" horiz-adv-x="512" d="" />
<glyph unicode="&#xe900;" glyph-name="close" d="M670.4 448l288 288c46.4 46.4 46.4 121.6 0 168s-121.6 46.4-168 0l-278.4-280-278.4 280c-46.4 46.4-121.6 46.4-168 0s-46.4-121.6 0-168l288-288-288-288c-46.4-46.4-46.4-121.6 0-168s121.6-46.4 168 0l278.4 280 278.4-278.4c22.4-22.4 52.8-35.2 83.2-35.2s60.8 11.2 83.2 35.2c46.4 46.4 46.4 121.6 0 168l-286.4 286.4z" />
<glyph unicode="&#xe901;" glyph-name="home" d="M502.842 711.616l346.806-309.563v-397.627c-0.23-15.083-10.182-24.646-18.266-29.146-8.552-4.813-17.771-6.834-27.667-6.896h-184.708c-6.354 0-12.573 2.478-17.104 6.896-4.458 4.354-7.026 10.478-7.026 16.686v191.25h-184.040v-191.25c0-6.208-2.598-12.333-7.062-16.686-4.526-4.418-10.746-6.896-17.099-6.896h-184.712c-9.827 0.062-19.109 2.083-27.629 6.896-8.090 4.499-18.064 14.062-18.304 29.146v397.627zM502.88 960c15.724 0 31.445-5.562 43.877-16.687l437.819-390.829c26.494-23.648 28.333-63.75 4.083-89.645-24.281-25.813-65.396-27.582-91.885-3.957l-393.934 351.64-393.933-351.64c-12.516-11.126-28.213-16.625-43.822-16.625-17.656 0-35.198 6.936-48.031 20.582l-0.058 0.104c-24.161 25.792-22.364 65.937 4.109 89.541l437.875 390.829c12.445 11.125 28.173 16.687 43.898 16.687z" />
<glyph unicode="&#xe902;" glyph-name="sort-descending" d="M483.2 625.6l-185.6-321.6c-12.8-22.4 3.2-51.2 28.8-51.2h371.2c25.6 0 41.6 28.8 28.8 51.2l-185.6 321.6c-12.8 22.4-44.8 22.4-57.6 0z" />
<glyph unicode="&#xe903;" glyph-name="print" d="M1024 449.6c0 80-65.6 145.6-145.6 145.6v355.2h-737.6v-355.2c-78.4-3.2-140.8-67.2-140.8-145.6v-366.4h140.8v-137.6h737.6v137.6h145.6v366.4zM718.4 788.8v-193.6h-416v193.6h416zM718.4 52.8h-416v140.8h416v-140.8z" />
<glyph unicode="&#xe904;" glyph-name="calendar" d="M928 832h-64v48c0 44.8-35.2 80-80 80s-80-35.2-80-80v-48h-384v48c0 44.8-35.2 80-80 80s-80-35.2-80-80v-48h-64c-52.8 0-96-43.2-96-96v-704c0-52.8 43.2-96 96-96h832c52.8 0 96 43.2 96 96v704c0 52.8-43.2 96-96 96zM896 64h-768v544h768v-544zM224 416v64c0 17.6 14.4 32 32 32h64c17.6 0 32-14.4 32-32v-64c0-17.6-14.4-32-32-32h-64c-17.6 0-32 14.4-32 32zM448 416v64c0 17.6 14.4 32 32 32h64c17.6 0 32-14.4 32-32v-64c0-17.6-14.4-32-32-32h-64c-17.6 0-32 14.4-32 32zM672 416v64c0 17.6 14.4 32 32 32h64c17.6 0 32-14.4 32-32v-64c0-17.6-14.4-32-32-32h-64c-17.6 0-32 14.4-32 32zM224 192v64c0 17.6 14.4 32 32 32h64c17.6 0 32-14.4 32-32v-64c0-17.6-14.4-32-32-32h-64c-17.6 0-32 14.4-32 32zM448 192v64c0 17.6 14.4 32 32 32h64c17.6 0 32-14.4 32-32v-64c0-17.6-14.4-32-32-32h-64c-17.6 0-32 14.4-32 32z" />
<glyph unicode="&#xe905;" glyph-name="sort-ascending" d="M540.8 232l185.6 321.6c12.8 22.4-3.2 51.2-28.8 51.2h-371.2c-25.6 0-41.6-28.8-28.8-51.2l185.6-321.6c12.8-22.4 44.8-22.4 57.6 0z" />
<glyph unicode="&#xe906;" glyph-name="edit" d="M161.6 238.4l304-161.6-296-129.6-8 291.2zM441.6 752l312-179.2-240-417.6-17.6 52.8-91.2 9.6-16 57.6-89.6 3.2-25.6 62.4-72-6.4 240 417.6zM590.4 948.8c8 0 17.6-1.6 24-6.4l222.4-126.4c27.2-16 33.6-56 12.8-89.6l-25.6-46.4-318.4 184 25.6 46.4c14.4 24 38.4 38.4 59.2 38.4z" />
<glyph unicode="&#xe907;" glyph-name="detail" d="M448 192h512c35.2 0 64-28.8 64-64v-128c0-35.2-28.8-64-64-64h-512c-35.2 0-64 28.8-64 64v128c0 35.2 28.8 64 64 64zM64 192h128c35.2 0 64-28.8 64-64v-128c0-35.2-28.8-64-64-64h-128c-35.2 0-64 28.8-64 64v128c0 35.2 28.8 64 64 64zM448 576h512c35.2 0 64-28.8 64-64v-128c0-35.2-28.8-64-64-64h-512c-35.2 0-64 28.8-64 64v128c0 35.2 28.8 64 64 64zM64 576h128c35.2 0 64-28.8 64-64v-128c0-35.2-28.8-64-64-64h-128c-35.2 0-64 28.8-64 64v128c0 35.2 28.8 64 64 64zM448 960h512c35.2 0 64-28.8 64-64v-128c0-35.2-28.8-64-64-64h-512c-35.2 0-64 28.8-64 64v128c0 35.2 28.8 64 64 64zM64 960h128c35.2 0 64-28.8 64-64v-128c0-35.2-28.8-64-64-64h-128c-35.2 0-64 28.8-64 64v128c0 35.2 28.8 64 64 64z" />
<glyph unicode="&#xe908;" glyph-name="cancel" d="M824.447 960l199.553-199.586-312.445-312.431 312.445-312.443-199.552-199.541-312.448 312.437-312.451-312.437-199.533 199.539 312.432 312.443-312.448 312.438 199.552 199.564 312.446-312.444z" />
<glyph unicode="&#xe909;" glyph-name="add" d="M1024 544h-416v416h-192v-416h-416v-192h416v-416h192v416h416z" />
<glyph unicode="&#xe90a;" glyph-name="contract" d="M585.6 241.6c-8 0-12.8-8-12.8-20.8v-17.6c0-20.8 12.8-49.6 28.8-64l51.2-44.8c16-14.4 28.8-25.6 28.8-25.6s11.2-11.2 25.6-24 40-12.8 54.4 0c14.4 12.8 40 33.6 56 49.6l51.2 44.8c16 12.8 28.8 43.2 28.8 64v17.6c0 20.8-12.8 25.6-28.8 12.8l-65.6-57.6c-16-14.4-38.4-32-48-43.2-9.6-9.6-19.2-16-19.2-16s-9.6 8-19.2 17.6c-9.6 9.6-32 27.2-48 43.2l-65.6 57.6c-8 4.8-12.8 6.4-17.6 6.4zM246.4 286.4h254.4c-9.6-17.6-16-38.4-20.8-57.6h-233.6v57.6zM736 390.4c126.4 0 227.2-100.8 227.2-227.2s-100.8-227.2-227.2-227.2-227.2 100.8-227.2 227.2c0 124.8 100.8 227.2 227.2 227.2zM246.4 428.8h260.8v-57.6h-260.8v57.6zM366.4 960h318.4c52.8 0 94.4-43.2 94.4-94.4v-441.6c-14.4 1.6-27.2 3.2-43.2 3.2-11.2 0-20.8-1.6-32-1.6v441.6c0 9.6-8 19.2-17.6 19.2h-286.4v-166.4c0 0-3.2-108.8-124.8-99.2h-139.2v-460.8c0-9.6 8-19.2 19.2-19.2h316.8c1.6-25.6 8-52.8 17.6-75.2h-336c-52.8 0-94.4 43.2-94.4 94.4v478.4l68.8 72 168 177.6h1.6l68.8 72z" />
<glyph unicode="&#xe90b;" glyph-name="notification" d="M993.6 201.6c-20.8 22.4-46.4 33.6-76.8 44.8-1.6 0-3.2 1.6-4.8 1.6-121.6 105.6-64 190.4-64 297.6s-107.2 268.8-249.6 315.2c0 3.2 1.6 8 1.6 11.2-1.6 49.6-40 88-88 88s-86.4-38.4-86.4-86.4c0-4.8 0-11.2 1.6-16-137.6-51.2-238.4-204.8-238.4-312s51.2-190.4-59.2-291.2c-22.4-6.4-41.6-14.4-59.2-24-14.4-8-28.8-16-40-28.8s-22.4-32-22.4-54.4c0-22.4 11.2-41.6 22.4-54.4 20.8-22.4 46.4-33.6 76.8-44.8 44.8-16 104-28.8 172.8-38.4 46.4-6.4 97.6-9.6 152-12.8 20.8-36.8 52.8-60.8 89.6-60.8s68.8 24 89.6 62.4c88 4.8 168 14.4 232 28.8 43.2 9.6 80 20.8 110.4 36.8 14.4 8 28.8 16 40 28.8s22.4 32 22.4 54.4c0 22.4-11.2 41.6-22.4 54.4zM203.2 124.8c-30.4 6.4-56 14.4-73.6 22.4 3.2 1.6 8 3.2 12.8 4.8 33.6 12.8 86.4 24 150.4 33.6 40 4.8 83.2 9.6 129.6 11.2-11.2-25.6-17.6-56-17.6-89.6 0-1.6 0-4.8 0-6.4-78.4 3.2-148.8 12.8-201.6 24zM883.2 142.4c-33.6-12.8-86.4-24-150.4-33.6-28.8-3.2-60.8-6.4-94.4-9.6 0 1.6 0 3.2 0 6.4 0 32-6.4 62.4-17.6 88 78.4-4.8 147.2-12.8 200-25.6 30.4-6.4 56-14.4 73.6-22.4-3.2 0-6.4-1.6-11.2-3.2z" />
<glyph unicode="&#xe90c;" glyph-name="visit" d="M808 307.2l121.6-121.6-251.2-249.6-121.6 121.6 251.2 249.6zM185.6 960c16 0 33.6-6.4 46.4-19.2l312-312c1.6-1.6 3.2-3.2 4.8-4.8l1.6-3.2-1.6 8c-28.8 132.8 36.8 171.2 36.8 171.2 11.2 8 19.2 11.2 27.2 11.2 35.2 0 44.8-62.4 44.8-62.4 1.6-33.6 65.6-150.4 65.6-150.4 52.8-108.8 28.8-177.6 28.8-177.6 20.8-46.4 8-67.2 8-67.2l-240-244.8c-152-3.2-364.8 257.6-371.2 265.6v0 0c-22.4 22.4-22.4 60.8 0 83.2 9.6 9.6 22.4 16 36.8 17.6h1.6l-6.4 6.4c-25.6 25.6-25.6 67.2 1.6 92.8l6.4 6.4c8 8 17.6 14.4 27.2 17.6l3.2 1.6-1.6 1.6c-25.6 25.6-25.6 67.2 1.6 92.8l6.4 6.4c9.6 9.6 22.4 16 33.6 19.2l6.4 1.6-128 128c-25.6 24-25.6 64 0 89.6l1.6 1.6c12.8 12.8 28.8 19.2 46.4 19.2z" />
<glyph unicode="&#xe90d;" glyph-name="back" d="M392 54.4l-334.4 334.4c-33.6 33.6-33.6 83.2 0 116.8l334.4 336c33.6 33.6 83.2 33.6 116.8 0s33.6-83.2 0-116.8l-275.2-276.8 275.2-276.8c33.6-33.6 33.6-83.2 0-116.8-16-16-41.6-25.6-59.2-25.6-16 0-41.6 9.6-57.6 25.6zM849.6 54.4l-334.4 334.4c-33.6 33.6-33.6 83.2 0 116.8l334.4 336c33.6 33.6 83.2 33.6 116.8 0s33.6-83.2 0-116.8l-275.2-276.8 275.2-276.8c33.6-33.6 33.6-83.2 0-116.8-16-16-41.6-25.6-59.2-25.6s-40 9.6-57.6 25.6z" />
<glyph unicode="&#xe90e;" glyph-name="next" d="M632 841.6l334.4-334.4c33.6-33.6 33.6-83.2 0-116.8l-334.4-336c-33.6-33.6-83.2-33.6-116.8 0s-33.6 83.2 0 116.8l275.2 276.8-275.2 276.8c-33.6 33.6-33.6 83.2 0 116.8 16 16 41.6 25.6 59.2 25.6 16 0 41.6-9.6 57.6-25.6zM174.4 841.6l334.4-334.4c33.6-33.6 33.6-83.2 0-116.8l-334.4-336c-33.6-33.6-83.2-33.6-116.8 0s-33.6 83.2 0 116.8l275.2 276.8-275.2 276.8c-33.6 33.6-33.6 83.2 0 116.8 16 16 41.6 25.6 59.2 25.6s40-9.6 57.6-25.6z" />
<glyph unicode="&#xe90f;" glyph-name="sms" d="M0 745.6v0l241.6-236.8 268.8-264 510.4 500.8h3.2v-672h-1024v672zM60.8 822.4h902.4l-451.2-451.2-451.2 451.2z" />
<glyph unicode="&#xe910;" glyph-name="search" d="M953.6 78.4l-241.6 281.6c49.6 60.8 80 139.2 80 225.6 0 198.4-161.6 358.4-360 358.4s-358.4-160-358.4-358.4 161.6-358.4 358.4-358.4c49.6 0 97.6 11.2 142.4 28.8l248-289.6c17.6-19.2 41.6-30.4 65.6-30.4 19.2 0 40 6.4 56 20.8 36.8 30.4 41.6 84.8 9.6 121.6zM235.2 585.6c0 108.8 88 196.8 196.8 196.8s196.8-88 196.8-196.8-88-196.8-196.8-196.8-196.8 88-196.8 196.8z" />
<glyph unicode="&#xe911;" glyph-name="done" d="M300.8 80l-292.8 364.8 155.2 128 174.4-216 558.4 422.4 120-156.8-715.2-542.4z" />
<glyph unicode="&#xe912;" glyph-name="checkout" d="M162.597 182.983h339.204l51.361-63.504h-390.565zM992.313 442.384c4.522-0.007 22.075-1.284 13.535-21.299l-320.976-253.704c0 0-12.961-17.916-40.642-1.6l-125.286 154.526c0 0-9.76 58.547 53.603 50.389l96.005-113.895 322.736 185.559c0 0 0.38 0.025 1.026 0.024zM341.604 960h356.007c58.403 0 105.764-47.365 105.764-105.605v-461.972l-84.642-48.646v510.618c0 11.673-9.442 21.112-21.121 21.112h-317.123v-185.942c0 0-3.524-122.091-138.405-111.528l-157.601-0.641v-514.447c0-11.689 9.598-21.127 21.118-21.127h592.011c11.68 0 21.121 9.438 21.121 21.127v67.039l84.642 66.882v-133.921c0-58.413-47.36-105.621-105.764-105.621h-592.011c-58.239 0-105.6 47.208-105.6 105.621v536.684l76.802 80.978v0.484l186.562 197.615h1.121z" />
<glyph unicode="&#xe913;" glyph-name="invoice" d="M257.6 161.6h464v-73.6h-464v73.6zM382.4 758.4h36.8v-59.2c36.8-1.6 60.8-11.2 78.4-20.8l-14.4-40c-12.8 8-36.8 20.8-76.8 20.8-46.4 0-64-27.2-64-52.8 0-32 22.4-46.4 75.2-68.8 62.4-25.6 94.4-57.6 94.4-110.4 0-48-33.6-92.8-96-102.4v-62.4h-38.4v60.8c-35.2 0-72 11.2-92.8 27.2l14.4 40c22.4-14.4 52.8-25.6 86.4-25.6 43.2 0 72 24 72 59.2 0 33.6-24 54.4-68.8 72-62.4 24-99.2 52.8-99.2 104 0 49.6 35.2 88 91.2 97.6v60.8zM238.4 891.2c-36.8 0-65.6-28.8-67.2-64v-755.2c0-36.8 30.4-68.8 68.8-68.8h545.6c38.4 0 68.8 30.4 68.8 68.8v547.2h-198.4c-41.6 0-75.2 33.6-75.2 75.2v196.8h-342.4zM238.4 960h366.4c1.6 0 4.8 0 6.4-1.6 1.6 0 1.6-1.6 3.2-1.6 1.6-1.6 3.2-1.6 4.8-1.6s3.2-1.6 3.2-3.2c3.2-1.6 3.2-3.2 4.8-3.2 3.2-3.2 4.8-4.8 6.4-6.4l270.4-270.4c1.6-1.6 3.2-3.2 4.8-4.8 1.6-3.2 3.2-3.2 3.2-4.8 1.6-3.2 3.2-4.8 3.2-6.4 1.6-1.6 1.6-3.2 1.6-4.8 1.6-3.2 1.6-3.2 1.6-4.8 0-3.2 1.6-3.2 1.6-4.8v-569.6c0-75.2-60.8-136-136-136h-545.6c-75.2 0-136 60.8-136 136v756.8c3.2 72 62.4 131.2 136 131.2z" />
<glyph unicode="&#xe914;" glyph-name="merge" d="M800 577.6v-88h224v-81.6h-224v-88l-163.2 128 81.6 64 81.6 65.6zM224 577.6l163.2-128-163.2-128v88h-224v81.6h224v86.4zM478.4 694.4h83.2v-491.2h-83.2v491.2z" />
<glyph unicode="&#xe915;" glyph-name="move-orders" d="M398.4 443.2l-259.2-243.2-86.4 92.8-12.8-155.2-12.8-153.6 310.4 6.4-89.6 96 259.2 243.2 115.2 108.8c86.4 81.6 172.8 161.6 259.2 243.2l89.6-96 25.6 310.4-310.4-6.4 86.4-92.8-374.4-353.6z" />
<glyph unicode="&#xe916;" glyph-name="update" d="M588.8 867.2c-206.4 0-377.6-144-422.4-336l-166.4 1.6 225.6-364.8 233.6 360-155.2 1.6c40 120 152 206.4 284.8 206.4 166.4 0 300.8-136 300.8-300.8 0-166.4-136-300.8-300.8-300.8-60.8 0-118.4 19.2-166.4 49.6l-72-110.4c68.8-44.8 150.4-72 238.4-72 240 0 435.2 195.2 435.2 435.2 0 236.8-195.2 430.4-435.2 430.4z" />
<glyph unicode="&#xe917;" glyph-name="resign" d="M521.6 616l81.6-75.2-92.8-19.2 11.2 94.4zM428.8 828.8h193.6l-70.4-75.2h-118.4l-233.6-257.6 4.8-212.8c0-9.6 440-275.2 451.2-275.2l89.6 3.2c9.6 0 19.2 8 19.2 19.2v560l75.2 75.2v-635.2c0-51.2-41.6-94.4-94.4-94.4h-528c-51.2 0-94.4 41.6-94.4 94.4v478.4l36.8 40v1.6l195.2 204.8-52.8-54.4 54.4 57.6 1.6 1.6 70.4 68.8zM724.8 880l131.2-121.6-161.6-176-3.2 27.2-43.2 14.4v32l-43.2 11.2-4.8 33.6-36.8 3.2 161.6 176zM816 960c6.4 0 11.2-1.6 16-6.4l92.8-86.4c11.2-11.2 9.6-30.4-3.2-44.8l-17.6-19.2-134.4 124.8 17.6 19.2c8 8 19.2 12.8 28.8 12.8z" />
<glyph unicode="&#xe918;" glyph-name="freeze" d="M552 217.6v-91.2h-60.8v91.2c-24 11.2-41.6 33.6-41.6 60.8 0 36.8 32 67.2 72 67.2s72-30.4 72-67.2c0-27.2-17.6-49.6-41.6-60.8zM332.8 702.4c0 99.2 80 179.2 179.2 179.2s179.2-80 179.2-179.2v-94.4c0-11.2-1.6-24-3.2-35.2h-352c-1.6 11.2-3.2 22.4-3.2 35.2v94.4zM752 568c0 8 1.6 16 1.6 24v128c0 131.2-108.8 240-241.6 240s-241.6-108.8-241.6-241.6v-128c0-8 0-16 1.6-24-68.8-17.6-118.4-78.4-118.4-153.6v-321.6c0-86.4 70.4-158.4 158.4-158.4h403.2c86.4 0 158.4 70.4 158.4 158.4v323.2c-3.2 73.6-52.8 136-121.6 153.6z" />
<glyph unicode="&#xe919;" glyph-name="renew" d="M334.4 539.2h392v-65.6h-392v65.6zM256 548.8v-120c510.4 0 550.4-302.4 550.4-361.6-110.4 240-550.4 118.4-550.4 118.4v-120l-256 225.6 256 257.6zM334.4 684.8h689.6v-65.6h-689.6v65.6zM334.4 830.4h392v-65.6h-392v65.6z" />
<glyph unicode="&#xe91a;" glyph-name="ignore" d="M105.6 579.2v-260.8h811.2v260.8h-811.2zM512 958.4c281.6 0 510.4-228.8 510.4-510.4s-228.8-510.4-510.4-510.4c-281.6 0-510.4 228.8-510.4 510.4s228.8 510.4 510.4 510.4z" />
<glyph unicode="&#xe91b;" glyph-name="shop-return" d="M731.2 744l195.2-198.4-132.8-1.6c14.4-30.4 24-64 25.6-99.2 4.8-75.2-19.2-147.2-67.2-203.2-49.6-56-116.8-91.2-192-96s-147.2 19.2-203.2 67.2c-20.8 17.6-36.8 38.4-51.2 59.2l59.2 68.8c11.2-24 27.2-46.4 48-64 38.4-33.6 89.6-51.2 140.8-46.4 51.2 3.2 99.2 27.2 132.8 67.2 33.6 38.4 51.2 89.6 46.4 140.8-3.2 38.4-16 73.6-40 104l-139.2-1.6 177.6 203.2zM78.4 960h852.8v-169.6h-84.8v84.8h-681.6v-852.8h683.2v84.8h84.8v-171.2h-852.8v1024z" />
<glyph unicode="&#xe91c;" glyph-name="shop-sales-history" d="M187.2 456h38.4v-60.8c38.4-1.6 64-11.2 81.6-22.4l-16-41.6c-12.8 8-38.4 20.8-80 20.8-48 0-67.2-28.8-67.2-54.4 0-32 24-49.6 78.4-72 64-27.2 97.6-59.2 97.6-115.2 0-49.6-35.2-96-99.2-107.2v-65.6h-40v64c-36.8 0-73.6 11.2-96 27.2l14.4 41.6c22.4-14.4 56-27.2 91.2-27.2 44.8 0 75.2 25.6 75.2 62.4 0 35.2-24 56-70.4 75.2-64 25.6-104 54.4-104 108.8 0 52.8 36.8 91.2 94.4 100.8v65.6zM697.6 585.6c11.2 0 22.4-4.8 32-12.8 17.6-17.6 17.6-46.4 0-64l-188.8-187.2c-8-8-20.8-12.8-32-12.8s-22.4 4.8-32 12.8l-134.4 134.4c-17.6 17.6-17.6 46.4 0 64s46.4 17.6 64 0l102.4-102.4 156.8 156.8c9.6 8 20.8 11.2 32 11.2zM520 811.2c230.4 0 416-187.2 416-416s-187.2-416-416-416c-27.2 0-51.2 22.4-51.2 51.2 0 27.2 22.4 51.2 49.6 51.2 174.4 0 315.2 140.8 315.2 315.2s-142.4 315.2-316.8 315.2c-136 0-251.2-86.4-296-206.4-30.4 9.6-62.4 16-96 16-1.6 0-3.2 0-4.8 0 52.8 168 212.8 289.6 400 289.6zM454.4 955.2h131.2c30.4 0 56-22.4 56-54.4 0-30.4-25.6-54.4-56-54.4h-131.2c-30.4 0-56 22.4-56 54.4s25.6 54.4 56 54.4z" />
<glyph unicode="&#xe91d;" glyph-name="shop-daily-settlement" d="M225.6 585.6c-20.8 0-36.8-16-36.8-35.2s16-35.2 36.8-35.2h342.4c20.8 0 36.8 16 36.8 35.2s-16 35.2-36.8 35.2h-342.4zM220.8 736c-20.8 0-38.4-16-38.4-36.8s17.6-36.8 38.4-36.8h350.4c20.8 0 38.4 16 38.4 36.8 0 16-9.6 28.8-24 33.6v0 0c-4.8 1.6-9.6 3.2-14.4 3.2h-350.4zM132.8 902.4h758.4v-616c-129.6-4.8-233.6-112-233.6-241.6 0-17.6 1.6-33.6 4.8-49.6h-529.6v907.2z" />
<glyph unicode="&#xe91e;" glyph-name="shop-cash-withdrawal" d="M512 646.4c-110.4 0-198.4-89.6-198.4-198.4 0-110.4 89.6-198.4 198.4-198.4s198.4 91.2 198.4 198.4c0 110.4-88 198.4-198.4 198.4zM459.2 496c0 0 3.2-4.8 14.4-11.2l64-12.8 27.2-4.8 4.8-1.6 3.2-1.6c40-20.8 46.4-44.8 46.4-59.2v-3.2c0-38.4-33.6-68.8-76.8-72v-25.6h-52.8v25.6c-46.4 0-83.2 33.6-83.2 72h52.8c0-9.6 12.8-20.8 30.4-20.8h46.4c17.6 0 30.4 11.2 30.4 20.8v3.2c0 0-4.8 4.8-16 11.2l-70.4 14.4-17.6 3.2-6.4 1.6-3.2 1.6c-32 16-46.4 36.8-46.4 59.2v3.2c0 41.6 38.4 72 83.2 72v22.4h52.8v-24c43.2-3.2 76.8-35.2 76.8-72h-52.8c0 9.6-12.8 20.8-30.4 20.8h-46.4c-16 0-28.8-11.2-30.4-22.4v0 0zM988.8 944h-953.6c-14.4 0-27.2-12.8-27.2-25.6v-283.2c0-14.4 12.8-27.2 27.2-27.2h156.8v-628.8c0-14.4 12.8-27.2 27.2-27.2h587.2c14.4 0 27.2 12.8 27.2 27.2v628.8h156.8c14.4 0 27.2 12.8 27.2 27.2v283.2c-1.6 12.8-14.4 25.6-28.8 25.6zM192 718.4h-89.6v120h89.6v-120zM244.8 4.8v86.4c43.2-9.6 75.2-44.8 86.4-86.4h-86.4zM512 196.8c-139.2 0-251.2 113.6-251.2 251.2s113.6 252.8 251.2 252.8 252.8-113.6 252.8-252.8-113.6-251.2-252.8-251.2zM779.2 4.8h-86.4c9.6 43.2 44.8 75.2 86.4 86.4v-86.4zM921.6 718.4h-89.6v120h89.6v-120z" />
<glyph unicode="&#xe91f;" glyph-name="shop-cash-customer" d="M761.6 721.6l28.8-8-8-25.6c19.2-6.4 32-14.4 40-22.4l-17.6-30.4c-6.4 4.8-17.6 16-40 22.4-19.2 4.8-27.2-1.6-30.4-9.6-3.2-9.6 6.4-19.2 28.8-35.2 32-22.4 41.6-43.2 33.6-68.8s-32-43.2-67.2-40l-9.6-30.4-28.8 8 8 27.2c-19.2 6.4-36.8 17.6-46.4 27.2l19.2 32c11.2-9.6 25.6-20.8 44.8-27.2 16-4.8 30.4-1.6 33.6 9.6s-4.8 20.8-24 35.2c-28.8 19.2-46.4 40-38.4 68.8 8 25.6 32 41.6 64 38.4l9.6 28.8zM627.2 881.6c1.6 0 1.6 0 3.2 0l372.8-126.4c4.8-1.6 6.4-6.4 4.8-9.6l-233.6-688c-1.6-4.8-6.4-6.4-9.6-4.8l-222.4 75.2c0 0 0 38.4 17.6 62.4l179.2-56 1.6 9.6 24 65.6c0 0 1.6 0 1.6 0l30.4 88 152 424-224 76.8-70.4 28.8-20.8-62.4c0 0 0 0 0 0l-9.6-30.4-86.4-272c0 0-24-16 60.8-17.6 0 0 108.8 35.2 108.8-57.6 0 0 14.4-81.6-54.4-89.6 0 0-104 0-139.2-43.2s-35.2-99.2-35.2-99.2c0 0-20.8-24-89.6-17.6 0 0-140.8-3.2-260.8-92.8l-112 248c0 0 161.6 62.4 195.2 115.2l241.6 268.8c0 0 22.4 19.2 62.4 14.4h43.2l64 187.2c-1.6 1.6 1.6 3.2 4.8 3.2z" />
<glyph unicode="&#xe920;" glyph-name="shop-pay" d="M387.2 608l-25.6-11.2 12.8-30.4c-28.8-19.2-38.4-48-25.6-75.2 12.8-28.8 41.6-33.6 78.4-32 27.2 1.6 41.6-1.6 48-16s-3.2-30.4-22.4-38.4c-19.2-8-38.4-9.6-54.4-8l4.8-33.6c14.4-1.6 36.8 1.6 56 9.6l12.8-30.4 25.6 11.2-14.4 32c32 20.8 38.4 51.2 27.2 78.4-12.8 27.2-35.2 38.4-75.2 35.2-30.4-1.6-46.4 0-51.2 12.8-4.8 11.2-1.6 25.6 19.2 35.2s38.4 8 46.4 8l-4.8 32c-12.8 0-27.2 0-48-8l-9.6 28.8zM427.2 630.4c60.8 1.6 120-33.6 145.6-91.2 35.2-78.4 0-171.2-78.4-206.4s-171.2 0-206.4 78.4c-35.2 78.4 0 171.2 78.4 206.4 19.2 8 40 12.8 60.8 12.8zM433.6 660.8c-1.6 0-4.8 0-6.4 0-24 0-48-6.4-72-16-92.8-41.6-134.4-152-92.8-244.8s152-134.4 244.8-92.8c92.8 41.6 134.4 152 92.8 244.8-30.4 67.2-97.6 107.2-166.4 108.8zM857.6 761.6l166.4-368-696-313.6-24 52.8 632 284.8-142.4 315.2 64 28.8zM696 816l166.4-368-696-313.6-166.4 368 696 313.6z" />
<glyph unicode="&#xe921;" glyph-name="shop-generate-confirm" d="M472 288l-113.6 113.6c-16 16-16 41.6 0 57.6s41.6 16 57.6 0l56-56 177.6 177.6c16 16 41.6 16 57.6 0s16-41.6 0-57.6l-235.2-235.2zM750.4 153.6c12.8-22.4 9.6-48-12.8-62.4-67.2-43.2-145.6-65.6-225.6-65.6-211.2 0-388.8 158.4-411.2 366.4h-56c-27.2 0-44.8 17.6-44.8 44.8 0 9.6 4.8 17.6 9.6 27.2 9.6 12.8 62.4 105.6 97.6 163.2 9.6 12.8 22.4 22.4 40 22.4v0c17.6 0 30.4-9.6 40-22.4l100.8-168c9.6-12.8 9.6-30.4 0-44.8-9.6-12.8-22.4-22.4-40-22.4h-52.8c17.6-155.2 155.2-278.4 318.4-278.4 62.4 0 123.2 17.6 176 52.8 20.8 12.8 48 4.8 60.8-12.8zM1024 435.2c0-9.6-4.8-17.6-9.6-27.2-9.6-12.8-62.4-105.6-97.6-163.2-8-12.8-20.8-20.8-38.4-20.8v0c-17.6 0-30.4 9.6-40 22.4l-100.8 168c-9.6 12.8-9.6 30.4 0 44.8 9.6 12.8 22.4 22.4 40 22.4h52.8c-17.6 155.2-155.2 278.4-318.4 278.4-62.4 0-123.2-17.6-176-52.8-22.4-12.8-48-9.6-62.4 12.8s-9.6 48 12.8 62.4c67.2 41.6 145.6 64 225.6 64 211.2 0 388.8-158.4 411.2-366.4h57.6c25.6 0 43.2-17.6 43.2-44.8z" />
<glyph unicode="&#xe922;" glyph-name="pdf" d="M636.8 294.4c6.4-8 11.2-19.2 11.2-32s-3.2-24-9.6-32c-6.4-8-14.4-11.2-25.6-11.2h-22.4v88h17.6c11.2 0 20.8-4.8 28.8-12.8zM395.2 307.2v-43.2h22.4c6.4 0 11.2 1.6 14.4 6.4s4.8 9.6 4.8 16c0 6.4-1.6 11.2-4.8 16s-8 4.8-14.4 4.8h-22.4zM947.2 358.4v-188.8c0-36.8-30.4-67.2-67.2-67.2h-16v-32c0-73.6-60.8-134.4-134.4-134.4h-550.4c-73.6 0-134.4 60.8-134.4 134.4v755.2c0 73.6 60.8 134.4 134.4 134.4h432l252.8-283.2v-251.2h16c38.4 1.6 67.2-28.8 67.2-67.2zM800 102.4h-462.4c-36.8 0-67.2 30.4-67.2 67.2v188.8c0 36.8 30.4 67.2 67.2 67.2h462.4v208h-235.2v262.4h-385.6c-38.4 0-70.4-32-70.4-70.4v-755.2c0-38.4 32-70.4 70.4-70.4h550.4c38.4 0 70.4 32 70.4 70.4v32zM696 310.4c-8 14.4-19.2 24-33.6 32s-32 11.2-51.2 11.2h-83.2v-180.8h80c20.8 0 38.4 3.2 52.8 11.2 16 8 27.2 17.6 35.2 32s12.8 28.8 12.8 48c0 16-4.8 32-12.8 46.4zM475.2 336c-12.8 11.2-30.4 17.6-54.4 17.6h-84.8v-180.8h60.8v46.4h25.6c24 0 41.6 6.4 54.4 17.6 12.8 12.8 19.2 28.8 19.2 51.2-1.6 20.8-8 36.8-20.8 48zM891.2 353.6h-145.6v-180.8h60.8v59.2h80v44.8h-80v32h86.4v44.8z" />
<glyph unicode="&#xe923;" glyph-name="count" d="M752 118.4h57.6c11.2 0 20.8-9.6 20.8-20.8v-20.8c0-11.2-9.6-20.8-20.8-20.8h-57.6c-11.2 0-20.8 9.6-20.8 20.8v20.8c1.6 11.2 9.6 20.8 20.8 20.8zM612.8 118.4h57.6c11.2 0 20.8-9.6 20.8-20.8v-20.8c0-11.2-9.6-20.8-20.8-20.8h-57.6c-11.2 0-20.8 9.6-20.8 20.8v20.8c1.6 11.2 9.6 20.8 20.8 20.8zM473.6 118.4h57.6c11.2 0 20.8-9.6 20.8-20.8v-20.8c0-11.2-9.6-20.8-20.8-20.8h-57.6c-11.2 0-20.8 9.6-20.8 20.8v20.8c0 11.2 9.6 20.8 20.8 20.8zM752 224h57.6c11.2 0 20.8-9.6 20.8-20.8v-20.8c0-11.2-9.6-20.8-20.8-20.8h-57.6c-11.2 0-20.8 9.6-20.8 20.8v20.8c1.6 11.2 9.6 20.8 20.8 20.8zM612.8 224h57.6c11.2 0 20.8-9.6 20.8-20.8v-20.8c0-11.2-9.6-20.8-20.8-20.8h-57.6c-11.2 0-20.8 9.6-20.8 20.8v20.8c1.6 11.2 9.6 20.8 20.8 20.8zM473.6 224h57.6c11.2 0 20.8-9.6 20.8-20.8v-20.8c0-11.2-9.6-20.8-20.8-20.8h-57.6c-11.2 0-20.8 9.6-20.8 20.8v20.8c0 11.2 9.6 20.8 20.8 20.8zM752 328h57.6c11.2 0 20.8-9.6 20.8-20.8v-19.2c0-11.2-9.6-20.8-20.8-20.8h-57.6c-11.2 0-20.8 9.6-20.8 20.8v20.8c1.6 11.2 9.6 19.2 20.8 19.2zM612.8 328h57.6c11.2 0 20.8-9.6 20.8-20.8v-19.2c0-11.2-9.6-20.8-20.8-20.8h-57.6c-11.2 0-20.8 9.6-20.8 20.8v20.8c1.6 11.2 9.6 19.2 20.8 19.2zM473.6 328h57.6c11.2 0 20.8-9.6 20.8-20.8v-19.2c0-11.2-9.6-20.8-20.8-20.8h-57.6c-11.2 0-20.8 9.6-20.8 20.8v20.8c0 11.2 9.6 19.2 20.8 19.2zM473.6 507.2h337.6c11.2 0 20.8-9.6 20.8-20.8v-89.6c0-11.2-9.6-20.8-20.8-20.8h-337.6c-11.2 0-20.8 9.6-20.8 20.8v89.6c0 11.2 9.6 20.8 20.8 20.8zM422.4 548.8c-17.6 0-30.4-14.4-30.4-30.4v-483.2c0-17.6 14.4-30.4 30.4-30.4h427.2c17.6 0 30.4 14.4 30.4 30.4v481.6c0 17.6-14.4 30.4-30.4 30.4h-427.2zM424 908.8c22.4 0 41.6-19.2 41.6-41.6s-19.2-41.6-41.6-41.6c-22.4 0-41.6 19.2-41.6 41.6s19.2 41.6 41.6 41.6zM470.4 960c0 0 1.6 0 1.6 0s0 0 0 0c28.8-6.4 51.2-25.6 64-49.6h123.2c64 0 115.2-51.2 115.2-115.2v-177.6h78.4c52.8 0 94.4-41.6 94.4-94.4v-491.2c0-52.8-41.6-94.4-94.4-94.4h-433.6c-52.8 0-94.4 41.6-94.4 94.4v0 56h-132.8c-64 0-115.2 51.2-115.2 115.2v592c0 64 51.2 115.2 115.2 115.2h148.8c-8-14.4-11.2-30.4-11.2-46.4h-78.4c-52.8 0-96-43.2-96-96v-30.4c0-16 12.8-28.8 28.8-28.8h484.8c16 0 28.8 12.8 28.8 28.8v30.4c0 52.8-41.6 96-94.4 96h-84.8c0 36.8-20.8 67.2-49.6 83.2-3.2 0-4.8 3.2-4.8 6.4s3.2 6.4 6.4 6.4z" />
</font>
</defs>
</svg>
